# Blender v2.90.0 OBJ File: 'tank.blend'
# www.blender.org
o Cube_Cube.004
v -1.089943 0.158727 1.796409
v -1.089943 0.158727 -1.796409
v 1.089943 0.158727 1.796409
v 1.089943 0.158727 -1.796409
v -1.264983 0.129769 2.431173
v -1.264983 -0.296841 2.239521
v -1.264983 0.323368 -1.752854
v -1.264983 0.312207 1.727432
v -1.264983 -0.312128 -2.322113
v -1.264983 0.157410 -2.313140
v 1.264983 0.129769 2.431173
v 1.264983 -0.296841 2.239521
v 1.264983 0.323368 -1.752854
v 0.000000 0.312207 1.727432
v 0.000000 -0.479279 1.727432
v 1.264983 0.312207 1.727432
v 0.000000 0.323368 -1.752854
v 0.000000 -0.490441 -1.761827
v 0.000000 0.129769 2.431173
v 0.000000 -0.296841 2.239521
v 1.264983 -0.312128 -2.322113
v 1.264983 0.157410 -2.313140
v 0.000000 0.157410 -2.313140
v 0.000000 -0.312128 -2.322113
v -1.089943 -0.388304 -2.082757
v -1.089943 -0.490441 -1.761827
v -1.089943 -0.388304 1.982793
v -1.089943 -0.385803 -2.090614
v -1.264983 -0.385803 -2.090614
v -1.264983 0.158727 -1.796409
v 1.089943 -0.388304 -2.082757
v 1.089943 -0.490441 -1.761827
v 1.089943 -0.388304 1.982793
v 1.089943 -0.385803 -2.090614
v 1.264983 0.158727 -1.796409
v 1.264983 -0.385803 -2.090614
v 1.089942 -0.479279 1.727432
v -1.089943 -0.479279 1.727432
v 1.264983 0.158727 -1.754669
v -1.264983 0.158727 1.727432
v -1.264983 0.158727 1.796409
v -1.264983 0.158727 -1.754669
v 1.089943 -0.355688 2.074343
v -1.089943 -0.355688 2.074343
v 1.264983 0.158727 1.727432
v 1.264983 0.158727 1.796409
v 1.264983 -0.355688 2.074343
v -1.264983 -0.355688 2.074343
vt 0.625000 0.249450
vt 0.625000 0.006523
vt 0.375000 0.250000
vt 0.375000 0.376717
vt 0.623857 0.250000
vt 0.125000 0.750000
vt 0.251717 0.750000
vt 0.251717 0.745200
vt 0.625000 0.249450
vt 0.623857 0.250000
vt 0.375000 0.250000
vt 0.375000 0.376717
vt 0.251717 0.745200
vt 0.251717 0.750000
vt 0.125000 0.750000
vt 0.423478 0.041538
vt 0.375000 0.250000
vt 0.375000 0.041538
vt 0.421017 0.037105
vt 0.625000 0.875000
vt 0.375000 1.000000
vt 0.375000 0.875000
vt 0.857703 0.500000
vt 0.750000 0.708462
vt 0.750000 0.500000
vt 0.875000 0.750000
vt 0.750000 0.750000
vt 0.857703 0.736602
vt 0.250000 0.708462
vt 0.125000 0.750000
vt 0.125000 0.708462
vt 0.250000 0.500000
vt 0.125000 0.500000
vt 0.250000 0.500000
vt 0.625000 0.250000
vt 0.375000 0.375000
vt 0.375000 0.250000
vt 0.423922 0.250000
vt 0.375000 0.250000
vt 0.423478 0.041538
vt 0.375000 0.041538
vt 0.421017 0.037105
vt 0.625000 0.013398
vt 0.625000 0.000000
vt 0.375000 1.000000
vt 0.857703 0.500000
vt 0.857703 0.736602
vt 0.857703 0.729175
vt 0.125000 0.750000
vt 0.125000 0.708462
vt 0.125000 0.500000
vt 0.625000 0.250000
vt 0.375000 0.250000
vt 0.423922 0.250000
vt 0.425577 0.250000
vt 0.375000 1.000000
vt 0.610094 0.873283
vt 0.375000 0.873283
vt 0.857703 0.500000
vt 0.750000 0.500000
vt 0.625000 0.233928
vt 0.625000 0.018584
vt 0.625000 0.006523
vt 0.625000 0.233928
vt 0.875000 0.500000
vt 0.857703 0.500000
vt 0.375000 1.000000
vt 0.610094 0.873283
vt 0.610094 1.000000
vt 0.610094 0.000000
vt 0.375000 0.000000
vt 0.623857 0.376717
vt 0.251717 0.500000
vt 0.125000 0.500000
vt 0.251717 0.502904
vt 0.375000 0.000000
vt 0.610094 0.000000
vt 0.623857 0.376717
vt 0.125000 0.500000
vt 0.251717 0.500000
vt 0.251717 0.502904
vt 0.425577 0.250000
vt 0.375000 0.000000
vt 0.625000 0.000000
vt 0.625000 0.013399
vt 0.625000 1.000000
vt 0.857703 0.708462
vt 0.857703 0.729175
vt 0.875000 0.736602
vt 0.250000 0.750000
vt 0.125000 0.500000
vt 0.625000 0.375000
vt 0.625000 0.250000
vt 0.375000 0.000000
vt 0.625000 1.000000
vt 0.857703 0.708462
vt 0.875000 0.750000
vt 0.875000 0.736602
vt 0.125000 0.500000
vt 0.625000 0.250000
vt 0.610094 1.000000
vt 0.875000 0.500000
vt 0.875000 0.500000
vt 0.857703 0.500000
vt 0.625000 0.018584
vt 0.857703 0.500000
vt 0.875000 0.500000
vt 0.375000 0.873283
vn -1.0000 0.0000 0.0000
vn 0.0000 -0.4753 0.8798
vn 0.0000 -1.0000 -0.0000
vn 1.0000 0.0000 0.0000
vn 0.0000 0.4098 -0.9122
vn 0.0000 1.0000 -0.0032
vn 0.0000 0.9420 -0.3356
vn 0.0000 -0.9680 -0.2509
vn 0.0000 -1.0000 -0.0032
vn 0.0000 -0.9588 0.2840
vn 0.0000 -0.0191 0.9998
vn 0.0000 -0.4753 -0.8798
vn 0.0000 0.9529 0.3033
s off
f 25/1/1 27/2/1 2/3/1
f 30/4/2 28/5/2 2/3/2
f 1/6/3 41/7/3 40/8/3
f 31/9/4 34/10/4 4/11/4
f 34/10/2 35/12/2 4/11/2
f 45/13/3 46/14/3 3/15/3
f 40/16/4 7/17/4 8/18/4
f 41/19/4 40/16/4 8/18/4
f 20/20/5 5/21/5 19/22/5
f 26/23/6 15/24/6 18/25/6
f 6/26/7 20/27/7 44/28/7
f 14/29/8 5/30/8 8/31/8
f 17/32/9 8/31/9 7/33/9
f 7/33/10 23/34/10 17/32/10
f 9/35/11 23/36/11 10/37/11
f 10/37/4 7/17/4 30/38/4
f 13/39/1 45/40/1 16/41/1
f 46/42/1 47/43/1 12/44/1
f 11/45/5 20/20/5 19/22/5
f 15/24/6 32/46/6 18/25/6
f 43/47/7 33/48/7 20/27/7
f 11/49/8 14/29/8 16/50/8
f 16/50/9 17/32/9 13/51/9
f 23/34/10 13/51/10 17/32/10
f 23/36/11 21/52/11 22/53/11
f 35/54/1 39/55/1 13/39/1
f 1/56/12 48/57/12 41/58/12
f 25/59/13 18/25/13 24/60/13
f 27/2/1 26/61/1 38/62/1
f 33/63/4 32/64/4 31/9/4
f 21/65/13 24/60/13 34/66/13
f 3/67/12 47/68/12 43/69/12
f 44/70/1 1/71/1 27/2/1
f 1/71/1 2/3/1 27/2/1
f 2/3/1 28/5/1 25/1/1
f 30/4/2 29/72/2 28/5/2
f 30/73/3 2/74/3 42/75/3
f 2/74/3 1/6/3 40/8/3
f 42/75/3 2/74/3 40/8/3
f 4/11/4 3/76/4 33/63/4
f 3/76/4 43/77/4 33/63/4
f 33/63/4 31/9/4 4/11/4
f 34/10/2 36/78/2 35/12/2
f 3/15/3 4/79/3 45/13/3
f 4/79/3 35/80/3 39/81/3
f 39/81/3 45/13/3 4/79/3
f 40/16/4 42/82/4 7/17/4
f 8/18/4 5/83/4 41/19/4
f 5/83/4 6/84/4 41/19/4
f 6/84/4 48/85/4 41/19/4
f 20/20/5 6/86/5 5/21/5
f 26/23/6 38/87/6 15/24/6
f 20/27/7 15/24/7 27/88/7
f 15/24/7 38/87/7 27/88/7
f 27/88/7 44/28/7 20/27/7
f 48/89/7 6/26/7 44/28/7
f 14/29/8 19/90/8 5/30/8
f 17/32/9 14/29/9 8/31/9
f 7/33/10 10/91/10 23/34/10
f 9/35/11 24/92/11 23/36/11
f 7/17/4 42/82/4 30/38/4
f 30/38/4 29/93/4 10/37/4
f 29/93/4 9/35/4 10/37/4
f 13/39/1 39/55/1 45/40/1
f 12/44/1 11/94/1 46/42/1
f 11/94/1 16/41/1 46/42/1
f 16/41/1 45/40/1 46/42/1
f 11/45/5 12/95/5 20/20/5
f 15/24/6 37/96/6 32/46/6
f 37/96/7 15/24/7 33/48/7
f 15/24/7 20/27/7 33/48/7
f 20/27/7 12/97/7 43/47/7
f 12/97/7 47/98/7 43/47/7
f 11/49/8 19/90/8 14/29/8
f 16/50/9 14/29/9 17/32/9
f 23/34/10 22/99/10 13/51/10
f 23/36/11 24/92/11 21/52/11
f 13/39/1 22/53/1 35/54/1
f 22/53/1 21/52/1 36/100/1
f 35/54/1 22/53/1 36/100/1
f 1/56/12 44/101/12 48/57/12
f 9/102/13 29/103/13 28/104/13
f 25/59/13 26/23/13 18/25/13
f 24/60/13 9/102/13 28/104/13
f 28/104/13 25/59/13 24/60/13
f 27/2/1 25/1/1 26/61/1
f 33/63/4 37/105/4 32/64/4
f 18/25/13 32/46/13 31/106/13
f 34/66/13 36/107/13 21/65/13
f 18/25/13 31/106/13 24/60/13
f 31/106/13 34/66/13 24/60/13
f 3/67/12 46/108/12 47/68/12
o Cube.001_Cube.005
v -1.089943 0.158727 1.796409
v -1.089943 -0.388304 2.091965
v -1.089943 0.158727 -1.796409
v -1.089943 -0.388304 -2.091965
v -1.435279 0.158727 1.796409
v -1.435279 -0.388304 2.091965
v -1.435279 0.158727 -1.796409
v -1.435279 -0.388304 -2.091965
v -1.089943 -0.820594 1.807997
v -1.089943 -0.820594 -1.807997
v -1.435279 -0.820594 -1.807997
v -1.435279 -0.820594 1.807997
v 1.089943 0.158727 1.796409
v 1.089943 -0.388304 2.091965
v 1.089943 0.158727 -1.796409
v 1.089943 -0.388304 -2.091965
v 1.435279 0.158727 1.796409
v 1.435279 -0.388304 2.091965
v 1.435279 0.158727 -1.796409
v 1.435279 -0.388304 -2.091965
v 1.089943 -0.820594 1.807997
v 1.089943 -0.820594 -1.807997
v 1.435279 -0.820594 -1.807997
v 1.435279 -0.820594 1.807997
vt 0.625000 0.000000
vt 0.375000 0.250000
vt 0.375000 0.000000
vt 0.625000 0.250000
vt 0.375000 0.500000
vt 0.625000 0.500000
vt 0.375000 0.750000
vt 0.625000 0.750000
vt 0.375000 1.000000
vt 0.125000 0.750000
vt 0.125000 0.500000
vt 0.625000 0.500000
vt 0.875000 0.500000
vt 0.625000 0.750000
vt 0.625000 0.250000
vt 0.625000 1.000000
vt 0.625000 1.000000
vt 0.375000 0.250000
vt 0.625000 0.000000
vt 0.375000 0.000000
vt 0.375000 0.500000
vt 0.625000 0.250000
vt 0.375000 0.750000
vt 0.625000 0.500000
vt 0.375000 1.000000
vt 0.625000 0.750000
vt 0.125000 0.750000
vt 0.125000 0.500000
vt 0.625000 0.500000
vt 0.625000 0.750000
vt 0.875000 0.500000
vt 0.625000 0.250000
vt 0.625000 1.000000
vt 0.625000 1.000000
vt 0.875000 0.750000
vt 0.625000 0.000000
vt 0.875000 0.750000
vt 0.625000 0.000000
vn 1.0000 0.0000 0.0000
vn 0.0000 0.4753 -0.8798
vn -1.0000 0.0000 0.0000
vn 0.0000 0.4753 0.8798
vn 0.0000 1.0000 0.0000
vn 0.0000 -0.5490 -0.8358
vn 0.0000 -1.0000 0.0000
vn 0.0000 -0.5490 0.8358
s off
f 50/109/14 51/110/14 49/111/14
f 52/112/15 55/113/15 51/110/15
f 56/114/16 53/115/16 55/113/16
f 54/116/17 49/117/17 53/115/17
f 55/113/18 49/118/18 51/119/18
f 52/112/19 59/120/19 56/114/19
f 58/121/20 60/122/20 59/120/20
f 56/114/16 60/122/16 54/116/16
f 50/109/14 58/123/14 52/112/14
f 54/116/21 57/124/21 50/125/21
f 63/126/16 62/127/16 61/128/16
f 67/129/15 64/130/15 63/126/15
f 65/131/14 68/132/14 67/129/14
f 61/133/17 66/134/17 65/131/17
f 61/135/18 67/129/18 63/136/18
f 71/137/19 64/130/19 68/132/19
f 72/138/20 70/139/20 71/137/20
f 72/138/14 68/132/14 66/134/14
f 70/140/16 62/127/16 64/130/16
f 69/141/21 66/134/21 62/142/21
f 50/109/14 52/112/14 51/110/14
f 52/112/15 56/114/15 55/113/15
f 56/114/16 54/116/16 53/115/16
f 54/116/17 50/125/17 49/117/17
f 55/113/18 53/115/18 49/118/18
f 52/112/19 58/123/19 59/120/19
f 58/121/20 57/143/20 60/122/20
f 56/114/16 59/120/16 60/122/16
f 50/109/14 57/144/14 58/123/14
f 54/116/21 60/122/21 57/124/21
f 63/126/16 64/130/16 62/127/16
f 67/129/15 68/132/15 64/130/15
f 65/131/14 66/134/14 68/132/14
f 61/133/17 62/142/17 66/134/17
f 61/135/18 65/131/18 67/129/18
f 71/137/19 70/140/19 64/130/19
f 72/138/20 69/145/20 70/139/20
f 72/138/14 71/137/14 68/132/14
f 70/140/16 69/146/16 62/127/16
f 69/141/21 72/138/21 66/134/21
o Cube.002_Cube.006
v -0.127857 0.418150 1.151389
v -0.127857 0.655502 1.151389
v -1.000000 0.793276 -1.000000
v 0.127857 0.418150 1.151389
v 0.127857 0.655502 1.151389
v 1.000000 0.793276 -1.000000
v -1.000000 0.793276 1.000000
v 1.000000 0.793276 1.000000
v -0.127857 0.418150 3.385271
v -0.127857 0.655502 3.385271
v 0.127857 0.655502 3.385271
v 0.127857 0.418150 3.385271
v -0.167675 0.381191 3.385271
v -0.167675 0.692461 3.385271
v 0.167675 0.692461 3.385271
v 0.167675 0.381191 3.385271
v -0.167675 0.381191 3.835400
v -0.167675 0.692461 3.835400
v 0.167675 0.692461 3.835400
v 0.167675 0.381191 3.835400
v -0.741027 0.622738 -1.249265
v 0.741027 0.622738 -1.249265
v 0.000000 0.321753 -1.249265
v 1.000000 0.314540 1.000000
v 0.784492 0.314420 1.037409
v 0.000000 0.314420 1.037409
v 1.000000 0.320954 -1.000000
v 0.741027 0.321753 -1.249265
v -1.000000 0.320954 -1.000000
v -0.741027 0.321753 -1.249265
v -1.000000 0.314540 1.000000
v -0.784492 0.314420 1.037409
vt 0.394779 0.500000
vt 0.625000 0.500000
vt 0.625000 0.500000
vt 0.557846 0.932846
vt 0.557846 0.817154
vt 0.557846 0.817154
vt 0.875000 0.500000
vt 0.625000 0.750000
vt 0.391652 1.000000
vt 0.391594 0.983406
vt 0.391652 0.750000
vt 0.391594 0.766594
vt 0.442154 0.932846
vt 0.391594 0.875000
vt 0.625000 1.000000
vt 0.442154 0.817154
vt 0.557846 0.817154
vt 0.442154 0.817154
vt 0.442154 0.817154
vt 0.442154 0.932846
vt 0.557846 0.932846
vt 0.442154 0.932846
vt 0.442154 0.932846
vt 0.557846 0.932846
vt 0.557846 0.817154
vt 0.442154 0.817154
vt 0.557846 0.932846
vt 0.875000 0.500000
vt 0.478293 0.375000
vt 0.625000 0.250000
vt 0.151184 0.545094
vt 0.151184 0.664890
vt 0.172480 0.667131
vt 0.394779 0.250000
vt 0.625000 0.000000
vt 0.625000 0.250000
vt 0.478293 0.250000
vt 0.172480 0.667131
vt 0.151184 0.664890
vt 0.151184 0.545094
vt 0.478293 0.500000
vt 0.875000 0.750000
vt 0.250000 0.667131
vt 0.250000 0.530164
vt 0.176775 0.530164
vt 0.391652 0.000000
vt 0.176775 0.530164
vn 0.6935 0.0000 -0.7205
vn 0.0000 1.0000 0.0000
vn -0.1710 -0.0000 0.9853
vn 0.1710 -0.0000 0.9853
vn 0.0000 -0.7396 0.6731
vn 0.0000 0.7396 0.6731
vn 0.0000 0.0000 -1.0000
vn 1.0000 0.0000 0.0000
vn 0.0000 -1.0000 0.0000
vn -1.0000 0.0000 0.0000
vn 0.0000 0.0000 1.0000
vn 0.0000 0.8253 -0.5647
vn 0.0000 1.0000 0.0032
vn -0.6935 0.0000 -0.7205
s off
f 99/147/22 94/148/22 78/149/22
f 74/150/23 83/151/23 77/152/23
f 75/153/23 80/154/23 78/149/23
f 74/150/24 103/155/24 104/156/24
f 96/157/25 77/152/25 97/158/25
f 73/159/26 104/156/26 98/160/26
f 77/152/27 79/161/27 74/150/27
f 84/162/28 87/163/28 88/164/28
f 77/152/29 84/162/29 76/165/29
f 76/165/30 81/166/30 73/159/30
f 73/159/31 82/167/31 74/150/31
f 88/164/30 89/168/30 85/169/30
f 81/166/28 88/164/28 85/169/28
f 82/167/28 85/169/28 86/170/28
f 83/151/28 86/170/28 87/163/28
f 91/171/32 89/168/32 92/172/32
f 85/169/31 90/173/31 86/170/31
f 86/170/23 91/171/23 87/163/23
f 87/163/29 92/172/29 88/164/29
f 78/149/33 93/174/33 75/153/33
f 95/175/28 93/176/28 94/148/28
f 101/177/34 103/178/34 104/179/34
f 101/180/31 79/181/31 75/182/31
f 101/180/35 93/176/35 102/183/35
f 99/147/29 80/154/29 96/157/29
f 97/184/34 96/185/34 99/186/34
f 99/147/22 100/187/22 94/148/22
f 74/150/23 82/167/23 83/151/23
f 75/153/23 79/188/23 80/154/23
f 104/156/24 73/159/24 74/150/24
f 74/150/24 79/161/24 103/155/24
f 80/154/25 77/152/25 96/157/25
f 77/152/25 76/165/25 97/158/25
f 97/158/26 76/165/26 98/160/26
f 76/165/26 73/159/26 98/160/26
f 77/152/27 80/154/27 79/161/27
f 84/162/28 83/151/28 87/163/28
f 77/152/29 83/151/29 84/162/29
f 76/165/30 84/162/30 81/166/30
f 73/159/31 81/166/31 82/167/31
f 88/164/30 92/172/30 89/168/30
f 81/166/28 84/162/28 88/164/28
f 82/167/28 81/166/28 85/169/28
f 83/151/28 82/167/28 86/170/28
f 91/171/32 90/173/32 89/168/32
f 85/169/31 89/168/31 90/173/31
f 86/170/23 90/173/23 91/171/23
f 87/163/29 91/171/29 92/172/29
f 78/149/33 94/148/33 93/174/33
f 94/148/28 100/187/28 95/175/28
f 95/175/28 102/183/28 93/176/28
f 104/179/34 98/189/34 101/177/34
f 98/189/34 95/190/34 101/177/34
f 95/190/34 102/191/34 101/177/34
f 101/180/31 103/192/31 79/181/31
f 101/180/35 75/182/35 93/176/35
f 99/147/29 78/149/29 80/154/29
f 100/193/34 95/190/34 99/186/34
f 95/190/34 98/189/34 99/186/34
f 98/189/34 97/184/34 99/186/34
